<?xml version="1.0" encoding="utf-8"?>
<!-- Generator: Adobe Illustrator 27.7.0, SVG Export Plug-In . SVG Version: 6.00 Build 0)  -->
<svg version="1.1" xmlns="http://www.w3.org/2000/svg" xmlns:xlink="http://www.w3.org/1999/xlink" preserveAspectRatio="xMidYMid meet" x="0px" y="0px"
	 viewBox="0 0 53.9 43.6" width="53.87" height="43.61">
	<style type="text/css">
		.st0{fill:url(#SVGID_1_);}
		.st1{fill:url(#SVGID_00000059300646137846994720000013822860827066167459_);}
		.st2{fill:url(#SVGID_00000031168613271962994400000007877898178812378040_);}
	</style>
	<linearGradient id="SVGID_1_" gradientUnits="userSpaceOnUse" x1="28.791" y1="30.3088" x2="21.2083" y2="35.4234">
		<stop  offset="0" style="stop-color:#284D99"/>
		<stop  offset="0.9994" style="stop-color:#0E123D"/>
	</linearGradient>
	<polygon class="st0" points="20.6,29.2 27.1,32.5 29.5,31.3 29.5,36.5 26.9,37.8 20.7,34.7 "/>
	<linearGradient id="SVGID_00000065788907752240026680000016751881333876644511_" gradientUnits="userSpaceOnUse" x1="26.935" y1="0.5248" x2="26.935" y2="37.7029">
		<stop  offset="0" style="stop-color:#284D99"/>
		<stop  offset="0.9994" style="stop-color:#0E123D"/>
	</linearGradient>
	<polygon style="fill:url(#SVGID_00000065788907752240026680000016751881333876644511_);" points="47.6,0.5 47.6,34.3 41.7,37.7
	41.7,11.2 26.9,18.7 12.2,11.2 12.2,37.7 6.3,34.3 6.3,0.5 26.9,11 "/>
	<linearGradient id="SVGID_00000054978196100882641290000008846449213621372591_" gradientUnits="userSpaceOnUse" x1="27.0945" y1="16.3696" x2="27.0945" y2="43.0852">
		<stop  offset="0" style="stop-color:#284D99"/>
		<stop  offset="0.9994" style="stop-color:#0E123D"/>
	</linearGradient>
	<polygon style="fill:url(#SVGID_00000054978196100882641290000008846449213621372591_);" points="15.6,39.7 15.6,16.4 27,22.3
	38.6,16.4 38.6,24.1 26.9,30 21.4,27.1 21.4,43.1 "/>
</svg>
